<svg xmlns="http://www.w3.org/2000/svg" viewBox="0 0 900 675" width="900" height="675" role="img" aria-label="Burger Regular">
  <defs>
    <linearGradient id="bg" x1="0" y1="0" x2="1" y2="1">
      <stop offset="0" stop-color="#EE7E47"/>
      <stop offset="1" stop-color="#4D2815"/>
    </linearGradient>
    <radialGradient id="glow" cx="0.5" cy="0.35" r="0.7">
      <stop offset="0" stop-color="#FFF7EC" stop-opacity="0.45"/>
      <stop offset="1" stop-color="#FFF7EC" stop-opacity="0"/>
    </radialGradient>
  </defs>
  <rect width="900" height="675" fill="url(#bg)"/>
  <rect width="900" height="675" fill="url(#glow)"/>
  
    <g transform="translate(450 280)">
      <path d="M -130 -20 Q 0 -180 130 -20 Z" fill="#D4A24A" stroke="#8F6624" stroke-width="4"/>
      <g fill="#FFFBF4">
        <circle cx="-60" cy="-80" r="5"/>
        <circle cx="-20" cy="-110" r="5"/>
        <circle cx="30" cy="-100" r="5"/>
        <circle cx="70" cy="-70" r="5"/>
      </g>
      <rect x="-132" y="-14" width="264" height="18" rx="4" fill="#BFE3CF"/>
      <rect x="-134" y="6" width="268" height="28" rx="6" fill="#6B3A22" stroke="#3A1F14" stroke-width="3"/>
      <rect x="-128" y="36" width="256" height="14" rx="4" fill="#FFFBF4"/>
      <path d="M -130 50 Q 0 110 130 50 L 120 80 Q 0 110 -120 80 Z" fill="#D4A24A" stroke="#8F6624" stroke-width="4"/>
    </g>
  <text x="450" y="555" text-anchor="middle" font-size="40" fill="#FFF7EC" font-family="Georgia, 'Times New Roman', serif" font-weight="700" letter-spacing="1">Burger Regular</text>
  <text x="450" y="600" text-anchor="middle" font-size="18" fill="#FFF7EC" opacity="0.75" font-family="Georgia, 'Times New Roman', serif" letter-spacing="8">BITE OF DESSERT</text>
</svg>
