<svg xmlns="http://www.w3.org/2000/svg" viewBox="0 0 900 675" width="900" height="675" role="img" aria-label="Stone-Oven Pizza">
  <defs>
    <linearGradient id="bg" x1="0" y1="0" x2="1" y2="1">
      <stop offset="0" stop-color="#B98735"/>
      <stop offset="1" stop-color="#3A1F14"/>
    </linearGradient>
    <radialGradient id="glow" cx="0.5" cy="0.35" r="0.7">
      <stop offset="0" stop-color="#FFF7EC" stop-opacity="0.45"/>
      <stop offset="1" stop-color="#FFF7EC" stop-opacity="0"/>
    </radialGradient>
  </defs>
  <rect width="900" height="675" fill="url(#bg)"/>
  <rect width="900" height="675" fill="url(#glow)"/>
  
    <g transform="translate(450 280)">
      <rect x="-160" y="90" width="320" height="24" rx="6" fill="#3A1F14"/>
      <rect x="-170" y="110" width="340" height="16" rx="4" fill="#1A0B06"/>
      <path d="M -60 90 Q -80 30 -40 0 Q -10 30 -20 -30 Q 20 0 40 -60 Q 60 -20 70 40 Q 80 80 60 90 Z" fill="#EE7E47" stroke="#3A1F14" stroke-width="3"/>
      <path d="M -30 90 Q -40 50 -20 30 Q 0 50 -5 10 Q 20 30 30 -10 Q 40 20 50 60 Q 50 85 30 90 Z" fill="#F7A978"/>
      <g fill="#FFFBF4" opacity="0.7">
        <path d="M -100 -40 Q -90 -70 -80 -40"/>
        <path d="M 80 -70 Q 90 -100 100 -70"/>
        <circle cx="-110" cy="-20" r="4"/>
        <circle cx="120" cy="-40" r="3"/>
      </g>
    </g>
  <text x="450" y="555" text-anchor="middle" font-size="40" fill="#FFF7EC" font-family="Georgia, 'Times New Roman', serif" font-weight="700" letter-spacing="1">Stone-Oven Pizza</text>
  <text x="450" y="600" text-anchor="middle" font-size="18" fill="#FFF7EC" opacity="0.75" font-family="Georgia, 'Times New Roman', serif" letter-spacing="8">BITE OF DESSERT</text>
</svg>
